# xmcd
#
# Track frame offsets:
#	300
#	18158
#	35198
#	62681
#	80073
#	97436
#	112771
#	129733
#	147985
#	165856
#	184312
#	205102
#
# Disc length: 2973 seconds
#
# Revision: 2
# Processed by: cddbd v1.5.2PL0 Copyright (c) Steve Scherf et al.
# Submitted via: audiograbber 1.83.01
#
DISCID=aa0b990c
DTITLE=CD Pool - Urban October 2010 CD2
DYEAR=2010
DGENRE=R&B
TTITLE0=Will.i.am Ft Nicki Minaj - Check It Out (Dirty Version)
TTITLE1=The Freshmen - Hello There (Dirty Version)
TTITLE2=Baker Trouble Ft Tinie Tempah and G Fresh - Body Language (Digital Dubsta
TTITLE2=r Remix)
TTITLE3=Sponge Ft So Solid and XO Man - Buncha Ballers (Club Mix)
TTITLE4=Duvall - All Fall Down (Radio Version)
TTITLE5=Gappy Ranks - Cup Full
TTITLE6=Aebulon Raphael - U and I
TTITLE7=Ne-Yo - One In A Million
TTITLE8=Sean Starr - Thinking and Doubting
TTITLE9=Will Downing - Get To Know You
TTITLE10=Derrick Dimitry - Get It On Tonight (Main Mix)
TTITLE11=Craig Mack Ft Q-Tip - Get Down (Clean Remix)
EXTD=
EXTT0=
EXTT1=
EXTT2=
EXTT3=
EXTT4=
EXTT5=
EXTT6=
EXTT7=
EXTT8=
EXTT9=
EXTT10=
EXTT11=
PLAYORDER=
